<svg width="20" height="20" viewBox="0 0 20 20" fill="none" xmlns="http://www.w3.org/2000/svg">
<path d="M12.4375 14H7.5625H12.4375ZM12.4375 14H15.3544C15.6656 14 15.8216 14 15.9475 13.9552C16.066 13.9126 16.1736 13.8416 16.2619 13.7476C16.3503 13.6537 16.417 13.5394 16.4569 13.4136C16.5 13.279 16.5 13.1134 16.5 12.7805C16.5 12.6348 16.5 12.5624 16.4886 12.4925C16.4686 12.3619 16.4205 12.238 16.3481 12.1303C16.3091 12.0725 16.2603 12.0208 16.1636 11.9181L15.8467 11.5818C15.7962 11.5281 15.7561 11.4643 15.7288 11.3942C15.7015 11.3241 15.6874 11.2489 15.6875 11.173V8.03693C15.6875 7.24415 15.5404 6.45913 15.2546 5.7267C14.9687 4.99426 14.5498 4.32876 14.0217 3.76818C13.4935 3.20759 12.8666 2.76292 12.1765 2.45953C11.4865 2.15615 10.7469 2 10 2C9.25311 2 8.51353 2.15615 7.82349 2.45953C7.13345 2.76292 6.50646 3.20759 5.97833 3.76818C5.4502 4.32876 5.03126 4.99426 4.74543 5.7267C4.45961 6.45913 4.3125 7.24415 4.3125 8.03693V11.173C4.31255 11.2489 4.29851 11.3241 4.27119 11.3942C4.24386 11.4643 4.20379 11.5281 4.15325 11.5818L3.83638 11.9181C3.73888 12.0216 3.69094 12.0725 3.65275 12.1294C3.57965 12.2372 3.53099 12.3615 3.51056 12.4925C3.5 12.5615 3.5 12.6348 3.5 12.7805C3.5 13.1134 3.5 13.279 3.54225 13.4136C3.58233 13.5395 3.64932 13.654 3.73798 13.7479C3.82663 13.8419 3.93456 13.9128 4.05331 13.9552C4.17925 14 4.33444 14 4.64562 14H7.5625" fill="#FF7651"/>
<path d="M12.4375 14H7.5625H4.64562C4.33444 14 4.17925 14 4.05331 13.9552C3.93456 13.9128 3.82663 13.8419 3.73798 13.7479C3.64932 13.654 3.58233 13.5395 3.54225 13.4136C3.5 13.279 3.5 13.1134 3.5 12.7805C3.5 12.6348 3.5 12.5615 3.51056 12.4925C3.53099 12.3615 3.57965 12.2372 3.65275 12.1294C3.69094 12.0725 3.73888 12.0216 3.83638 11.9181L4.15325 11.5818C4.20379 11.5281 4.24386 11.4643 4.27119 11.3942C4.29851 11.3241 4.31255 11.2489 4.3125 11.173V8.03693C4.3125 7.24415 4.45961 6.45913 4.74543 5.7267C5.03126 4.99426 5.4502 4.32876 5.97833 3.76818C6.50646 3.20759 7.13345 2.76292 7.82349 2.45953C8.51353 2.15615 9.25311 2 10 2C10.7469 2 11.4865 2.15615 12.1765 2.45953C12.8666 2.76292 13.4935 3.20759 14.0217 3.76818C14.5498 4.32876 14.9687 4.99426 15.2546 5.7267C15.5404 6.45913 15.6875 7.24415 15.6875 8.03693V11.173C15.6874 11.2489 15.7015 11.3241 15.7288 11.3942C15.7561 11.4643 15.7962 11.5281 15.8467 11.5818L16.1636 11.9181C16.2603 12.0208 16.3091 12.0725 16.3481 12.1303C16.4205 12.238 16.4686 12.3619 16.4886 12.4925C16.5 12.5624 16.5 12.6348 16.5 12.7805C16.5 13.1134 16.5 13.279 16.4569 13.4136C16.417 13.5394 16.3503 13.6537 16.2619 13.7476C16.1736 13.8416 16.066 13.9126 15.9475 13.9552C15.8216 14 15.6656 14 15.3544 14H12.4375Z" stroke="#FF7651" stroke-linecap="round" stroke-linejoin="round"/>
<path d="M8 14H12V15C12 16.1046 11.1046 17 10 17V17C8.89543 17 8 16.1046 8 15V14Z" stroke="#FF7651" stroke-linecap="round" stroke-linejoin="round"/>
</svg>
