<svg width="20" height="20" viewBox="0 0 20 20" fill="none" xmlns="http://www.w3.org/2000/svg">
<path d="M3 8.99158H3.75C3.75 8.79312 3.67134 8.60275 3.53124 8.46217L3 8.99158ZM17 8.99158L16.4688 8.46217C16.3287 8.60275 16.25 8.79312 16.25 8.99158H17ZM2.75 6.57143C2.75 4.46091 4.46091 2.75 6.57143 2.75V1.25C3.63249 1.25 1.25 3.63248 1.25 6.57143H2.75ZM3.53124 8.46217C3.04764 7.97689 2.75 7.30964 2.75 6.57143H1.25C1.25 7.72248 1.7164 8.76604 2.46876 9.521L3.53124 8.46217ZM3.75 16V8.99158H2.25V16H3.75ZM5 17.25C4.30964 17.25 3.75 16.6904 3.75 16H2.25C2.25 17.5188 3.48122 18.75 5 18.75V17.25ZM15 17.25H5V18.75H15V17.25ZM16.25 16C16.25 16.6904 15.6904 17.25 15 17.25V18.75C16.5188 18.75 17.75 17.5188 17.75 16H16.25ZM16.25 8.99158V16H17.75V8.99158H16.25ZM17.25 6.57143C17.25 7.30964 16.9524 7.97689 16.4688 8.46217L17.5312 9.521C18.2836 8.76605 18.75 7.72248 18.75 6.57143H17.25ZM13.4286 2.75C15.5391 2.75 17.25 4.46091 17.25 6.57143H18.75C18.75 3.63249 16.3675 1.25 13.4286 1.25V2.75ZM6.57143 2.75H13.4286V1.25H6.57143V2.75Z" fill="#1C1E20"/>
<path d="M13 7.5L7 13.5" stroke="#1C1E20" stroke-width="1.5" stroke-linecap="round" stroke-linejoin="round"/>
<path d="M13 11.5L11 13.5" stroke="#1C1E20" stroke-width="1.5" stroke-linecap="round" stroke-linejoin="round"/>
<path d="M9 7.5L7 9.5" stroke="#1C1E20" stroke-width="1.5" stroke-linecap="round" stroke-linejoin="round"/>
</svg>
