<svg width="51" height="50" viewBox="0 0 51 50" fill="none" xmlns="http://www.w3.org/2000/svg">
<mask id="path-1-inside-1_1623_5261" fill="white">
<path fill-rule="evenodd" clip-rule="evenodd" d="M16.7 4C9.40984 4 3.5 9.90984 3.5 17.2C3.5 19.8383 4.66102 22.2054 6.5 23.8183V38C6.5 42.4183 10.0817 46 14.5 46H36.5C40.9183 46 44.5 42.4183 44.5 38V23.8183C46.339 22.2054 47.5 19.8383 47.5 17.2C47.5 9.90984 41.5902 4 34.3 4H16.7Z"/>
</mask>
<path fill-rule="evenodd" clip-rule="evenodd" d="M16.7 4C9.40984 4 3.5 9.90984 3.5 17.2C3.5 19.8383 4.66102 22.2054 6.5 23.8183V38C6.5 42.4183 10.0817 46 14.5 46H36.5C40.9183 46 44.5 42.4183 44.5 38V23.8183C46.339 22.2054 47.5 19.8383 47.5 17.2C47.5 9.90984 41.5902 4 34.3 4H16.7Z" fill="#F2F4F6"/>
<path d="M6.5 23.8183H7V23.5918L6.82969 23.4424L6.5 23.8183ZM44.5 23.8183L44.1703 23.4424L44 23.5918V23.8183H44.5ZM3 17.2C3 17.9716 3.09407 18.7219 3.2716 19.4398L4.24236 19.1997C4.0841 18.5597 4 17.89 4 17.2H3ZM4.66612 22.513C5.09823 23.1328 5.60384 23.6974 6.17031 24.1942L6.82969 23.4424C6.32375 22.9987 5.87222 22.4944 5.48643 21.9411L4.66612 22.513ZM6 23.8183V25.8443H7V23.8183H6ZM6 28.8832V32.9351H7V28.8832H6ZM6 35.974V38H7V35.974H6ZM6 38C6 38.6497 6.07298 39.283 6.2114 39.8918L7.18652 39.6701C7.06453 39.1335 7 38.5746 7 38H6ZM7.30217 42.5232C7.98182 43.6026 8.89743 44.5182 9.97683 45.1978L10.5097 44.3516C9.55685 43.7517 8.74833 42.9431 8.14839 41.9903L7.30217 42.5232ZM12.6082 46.2886C13.217 46.427 13.8503 46.5 14.5 46.5V45.5C13.9254 45.5 13.3665 45.4355 12.8299 45.3135L12.6082 46.2886ZM14.5 46.5H16.5952V45.5H14.5V46.5ZM19.7381 46.5H23.9286V45.5H19.7381V46.5ZM27.0714 46.5H31.2619V45.5H27.0714V46.5ZM34.4048 46.5H36.5V45.5H34.4048V46.5ZM36.5 46.5C37.1497 46.5 37.783 46.427 38.3918 46.2886L38.1701 45.3135C37.6335 45.4355 37.0746 45.5 36.5 45.5V46.5ZM41.0232 45.1978C42.1026 44.5182 43.0182 43.6026 43.6978 42.5232L42.8516 41.9903C42.2517 42.9431 41.4431 43.7517 40.4903 44.3516L41.0232 45.1978ZM44.7886 39.8918C44.927 39.283 45 38.6497 45 38H44C44 38.5746 43.9355 39.1335 43.8135 39.6701L44.7886 39.8918ZM45 38V35.974H44V38H45ZM45 32.9351V28.8832H44V32.9351H45ZM45 25.8443V23.8183H44V25.8443H45ZM44.8297 24.1942C45.3962 23.6974 45.9018 23.1328 46.3339 22.513L45.5136 21.9411C45.1278 22.4944 44.6763 22.9987 44.1703 23.4424L44.8297 24.1942ZM47.7284 19.4398C47.9059 18.7219 48 17.9716 48 17.2H47C47 17.89 46.9159 18.5597 46.7576 19.1997L47.7284 19.4398ZM48 17.2C48 16.5064 47.9484 15.8245 47.8488 15.1581L46.8598 15.3059C46.9521 15.9236 47 16.556 47 17.2H48ZM47.0561 12.1931C46.5514 10.9084 45.8585 9.71859 45.0113 8.65771L44.2299 9.2817C45.0155 10.2655 45.6578 11.3684 46.1253 12.5588L47.0561 12.1931ZM42.8423 6.48865C41.7814 5.64153 40.5916 4.94855 39.3069 4.44389L38.9412 5.37466C40.1316 5.84222 41.2345 6.48449 42.2183 7.27009L42.8423 6.48865ZM36.3419 3.6512C35.6755 3.55158 34.9936 3.5 34.3 3.5V4.5C34.944 4.5 35.5764 4.54789 36.1941 4.64021L36.3419 3.6512ZM34.3 3.5H32.6238V4.5H34.3V3.5ZM30.1095 3.5H26.7571V4.5H30.1095V3.5ZM24.2429 3.5H20.8905V4.5H24.2429V3.5ZM18.3762 3.5H16.7V4.5H18.3762V3.5ZM16.7 3.5C16.0064 3.5 15.3245 3.55158 14.6581 3.6512L14.8059 4.64021C15.4236 4.54789 16.056 4.5 16.7 4.5V3.5ZM11.6931 4.44389C10.4084 4.94855 9.21859 5.64153 8.15771 6.48865L8.7817 7.27009C9.76553 6.48449 10.8684 5.84222 12.0588 5.37466L11.6931 4.44389ZM5.98865 8.65772C5.14153 9.71859 4.44855 10.9084 3.94389 12.1931L4.87466 12.5588C5.34222 11.3684 5.98449 10.2655 6.77009 9.2817L5.98865 8.65772ZM3.1512 15.1581C3.05158 15.8245 3 16.5064 3 17.2H4C4 16.556 4.04789 15.9236 4.14021 15.3059L3.1512 15.1581ZM6.5 23.8183H7.5V23.3652L7.15938 23.0665L6.5 23.8183ZM44.5 23.8183L43.8406 23.0665L43.5 23.3652V23.8183H44.5ZM2.5 17.2C2.5 18.0123 2.59906 18.8029 2.78623 19.5598L4.72774 19.0797C4.57911 18.4787 4.5 17.8493 4.5 17.2H2.5ZM4.25597 22.799C4.71124 23.452 5.24388 24.0467 5.84062 24.5701L7.15938 23.0665C6.68371 22.6493 6.25922 22.1753 5.89658 21.6551L4.25597 22.799ZM5.5 23.8183V25.8443H7.5V23.8183H5.5ZM5.5 28.8832V32.9351H7.5V28.8832H5.5ZM5.5 35.974V38H7.5V35.974H5.5ZM5.5 38C5.5 38.6873 5.57721 39.3577 5.72385 40.0027L7.67408 39.5593C7.5603 39.0588 7.5 38.537 7.5 38H5.5ZM6.87906 42.7896C7.59856 43.9323 8.56772 44.9014 9.71042 45.6209L10.7761 43.9285C9.88656 43.3684 9.13159 42.6134 8.57151 41.7239L6.87906 42.7896ZM12.4973 46.7762C13.1423 46.9228 13.8127 47 14.5 47V45C13.9629 45 13.4412 44.9397 12.9407 44.8259L12.4973 46.7762ZM14.5 47H16.5952V45H14.5V47ZM19.7381 47H23.9286V45H19.7381V47ZM27.0714 47H31.2619V45H27.0714V47ZM34.4048 47H36.5V45H34.4048V47ZM36.5 47C37.1873 47 37.8577 46.9228 38.5027 46.7762L38.0593 44.8259C37.5588 44.9397 37.037 45 36.5 45V47ZM41.2896 45.6209C42.4323 44.9014 43.4014 43.9323 44.1209 42.7896L42.4285 41.7239C41.8684 42.6134 41.1134 43.3684 40.2239 43.9285L41.2896 45.6209ZM45.2762 40.0027C45.4228 39.3577 45.5 38.6873 45.5 38H43.5C43.5 38.537 43.4397 39.0588 43.3259 39.5593L45.2762 40.0027ZM45.5 38V35.974H43.5V38H45.5ZM45.5 32.9351V28.8832H43.5V32.9351H45.5ZM45.5 25.8443V23.8183H43.5V25.8443H45.5ZM45.1594 24.5701C45.7561 24.0467 46.2888 23.452 46.744 22.799L45.1034 21.6551C44.7408 22.1753 44.3163 22.6493 43.8406 23.0665L45.1594 24.5701ZM48.2138 19.5598C48.4009 18.8029 48.5 18.0123 48.5 17.2H46.5C46.5 17.8493 46.4209 18.4787 46.2723 19.0797L48.2138 19.5598ZM48.5 17.2C48.5 16.4816 48.4466 15.775 48.3433 15.0842L46.3653 15.3799C46.454 15.9731 46.5 16.5809 46.5 17.2H48.5ZM47.5215 12.0103C46.9983 10.6783 46.2799 9.44512 45.4021 8.34572L43.8392 9.59369C44.594 10.539 45.2109 11.5985 45.66 12.7416L47.5215 12.0103ZM43.1543 6.09793C42.0549 5.22005 40.8217 4.50172 39.4897 3.97851L38.7584 5.84005C39.9015 6.28906 40.961 6.90597 41.9063 7.66081L43.1543 6.09793ZM36.4158 3.1567C35.725 3.05343 35.0184 3 34.3 3V5C34.9191 5 35.5269 5.04604 36.1201 5.13472L36.4158 3.1567ZM34.3 3H32.6238V5H34.3V3ZM30.1095 3H26.7571V5H30.1095V3ZM24.2429 3H20.8905V5H24.2429V3ZM18.3762 3H16.7V5H18.3762V3ZM16.7 3C15.9816 3 15.275 3.05343 14.5842 3.1567L14.8799 5.13472C15.4731 5.04604 16.0809 5 16.7 5V3ZM11.5103 3.97851C10.1783 4.50172 8.94512 5.22006 7.84572 6.09793L9.09369 7.66081C10.039 6.90597 11.0985 6.28906 12.2416 5.84005L11.5103 3.97851ZM5.59793 8.34572C4.72006 9.44512 4.00172 10.6783 3.47851 12.0103L5.34005 12.7416C5.78906 11.5985 6.40597 10.539 7.16081 9.59369L5.59793 8.34572ZM2.6567 15.0842C2.55343 15.775 2.5 16.4816 2.5 17.2H4.5C4.5 16.5809 4.54604 15.9731 4.63472 15.3799L2.6567 15.0842Z" fill="#B2B4B6" mask="url(#path-1-inside-1_1623_5261)"/>
<path d="M30 16L20 33.3205" stroke="#B2B4B6" stroke-linecap="round"/>
<path d="M22 17L17 25.6603" stroke="#B2B4B6" stroke-linecap="round"/>
<path d="M34 23L29 31.6603" stroke="#B2B4B6" stroke-linecap="round"/>
</svg>
