<svg width="20" height="21" viewBox="0 0 20 21" fill="none" xmlns="http://www.w3.org/2000/svg">
<path d="M9.20711 15.7929L9.73744 16.3232L9.20711 15.7929ZM6.70711 18.2929L6.17677 17.7626L6.70711 18.2929ZM2 4.25H17V2.75H2V4.25ZM1.75 14.5V4.5H0.25V14.5H1.75ZM4 14.75H2V16.25H4V14.75ZM5.75 17.5858V16.5H4.25V17.5858L5.75 17.5858ZM8.67678 15.2626L6.17677 17.7626L7.23743 18.8232L9.73744 16.3232L8.67678 15.2626ZM17 14.75H9.91421V16.25H17V14.75ZM17.25 4.5V14.5H18.75V4.5H17.25ZM17 16.25C17.9665 16.25 18.75 15.4665 18.75 14.5H17.25C17.25 14.6381 17.1381 14.75 17 14.75V16.25ZM9.73744 16.3232C9.78432 16.2763 9.84791 16.25 9.91421 16.25V14.75C9.45008 14.75 9.00496 14.9344 8.67678 15.2626L9.73744 16.3232ZM4.25 17.5858C4.25 19.1449 6.13499 19.9257 7.23743 18.8232L6.17677 17.7626C6.01929 17.9201 5.75 17.8085 5.75 17.5858L4.25 17.5858ZM4 16.25C4.13807 16.25 4.25 16.3619 4.25 16.5H5.75C5.75 15.5335 4.9665 14.75 4 14.75V16.25ZM0.25 14.5C0.25 15.4665 1.0335 16.25 2 16.25V14.75C1.86193 14.75 1.75 14.6381 1.75 14.5H0.25ZM17 4.25C17.1381 4.25 17.25 4.36193 17.25 4.5H18.75C18.75 3.5335 17.9665 2.75 17 2.75V4.25ZM2 2.75C1.0335 2.75 0.25 3.5335 0.25 4.5H1.75C1.75 4.36193 1.86193 4.25 2 4.25V2.75Z" fill="#1C1E20"/>
<path d="M5 11H10" stroke="#1C1E20" stroke-width="1.5" stroke-linecap="round"/>
<path d="M5 8H14" stroke="#1C1E20" stroke-width="1.5" stroke-linecap="round"/>
</svg>
