<svg width="22" height="22" viewBox="0 0 22 22" fill="none" xmlns="http://www.w3.org/2000/svg">
<g clip-path="url(#clip0_1199_6112)">
<path d="M10.9974 5.49988V5.49991L11.0026 5.49988C12.8301 5.49042 14.6188 6.02695 16.1395 7.04069C17.6028 8.01627 18.7537 9.39102 19.457 10.9999C18.7537 12.6088 17.6028 13.9835 16.1395 14.9591C14.6188 15.9728 12.8301 16.5094 11.0026 16.4999V16.4999L10.9974 16.4999C9.16988 16.5094 7.38116 15.9728 5.86054 14.9591C4.39718 13.9835 3.24628 12.6088 2.54301 10.9999C3.24628 9.39102 4.39718 8.01627 5.86054 7.04069C7.38116 6.02695 9.16988 5.49042 10.9974 5.49988Z" stroke="#B2B4B6"/>
<circle cx="11" cy="11" r="2.5" stroke="#B2B4B6"/>
</g>
<defs>
<clipPath id="clip0_1199_6112">
<rect width="22" height="22" fill="white"/>
</clipPath>
</defs>
</svg>
