<svg width="63" height="50" viewBox="0 0 63 50" fill="none" xmlns="http://www.w3.org/2000/svg">
<path fill-rule="evenodd" clip-rule="evenodd" d="M18.5 0C8.55887 0 0.5 8.05888 0.5 18C0.5 21.554 2.045 24.7471 4.5 26.9444V42C4.5 46.4183 8.08172 50 12.5 50H50.5C54.9183 50 58.5 46.4183 58.5 42V26.9444C60.955 24.7471 62.5 21.554 62.5 18C62.5 8.05888 54.4411 0 44.5 0H18.5Z" fill="url(#paint0_linear_854_3263)"/>
<mask id="path-2-inside-1_854_3263" fill="white">
<path fill-rule="evenodd" clip-rule="evenodd" d="M18.5 0C8.55888 0 0.5 8.05888 0.5 18C0.5 21.554 2.045 24.7471 4.5 26.9444V42C4.5 46.4183 8.08172 50 12.5 50H34.5C38.9183 50 42.5 46.4183 42.5 42V26.9444C44.955 24.7471 46.5 21.554 46.5 18C46.5 8.05888 38.4411 0 28.5 0H18.5Z"/>
</mask>
<path fill-rule="evenodd" clip-rule="evenodd" d="M18.5 0C8.55888 0 0.5 8.05888 0.5 18C0.5 21.554 2.045 24.7471 4.5 26.9444V42C4.5 46.4183 8.08172 50 12.5 50H34.5C38.9183 50 42.5 46.4183 42.5 42V26.9444C44.955 24.7471 46.5 21.554 46.5 18C46.5 8.05888 38.4411 0 28.5 0H18.5Z" fill="white"/>
<path d="M4.5 26.9444H7.5V25.6034L6.50074 24.709L4.5 26.9444ZM42.5 26.9444L40.4993 24.709L39.5 25.6034V26.9444H42.5ZM3.5 18C3.5 9.71573 10.2157 3 18.5 3V-3C6.90202 -3 -2.5 6.40202 -2.5 18H3.5ZM6.50074 24.709C4.6547 23.0568 3.5 20.6652 3.5 18H-2.5C-2.5 22.4428 -0.564695 26.4375 2.49926 29.1798L6.50074 24.709ZM7.5 42V26.9444H1.5V42H7.5ZM12.5 47C9.73858 47 7.5 44.7614 7.5 42H1.5C1.5 48.0751 6.42487 53 12.5 53V47ZM34.5 47H12.5V53H34.5V47ZM39.5 42C39.5 44.7614 37.2614 47 34.5 47V53C40.5751 53 45.5 48.0751 45.5 42H39.5ZM39.5 26.9444V42H45.5V26.9444H39.5ZM43.5 18C43.5 20.6652 42.3453 23.0568 40.4993 24.709L44.5007 29.1798C47.5647 26.4375 49.5 22.4428 49.5 18H43.5ZM28.5 3C36.7843 3 43.5 9.71573 43.5 18H49.5C49.5 6.40202 40.098 -3 28.5 -3V3ZM18.5 3H28.5V-3H18.5V3Z" fill="#FF7651" mask="url(#path-2-inside-1_854_3263)"/>
<path d="M17.5 20L29.5 32M29.5 20L17.5 32" stroke="#FF7651" stroke-width="3" stroke-linecap="round" stroke-linejoin="round"/>
<path d="M45.5 29.0007H48.4402C49.8098 29.0007 51.1757 28.8601 52.5165 28.5809L54 28.2721" stroke="#E3542D" stroke-width="3" stroke-linecap="round"/>
<defs>
<linearGradient id="paint0_linear_854_3263" x1="40.5" y1="11" x2="63.5" y2="19.5" gradientUnits="userSpaceOnUse">
<stop stop-color="#FF7651"/>
<stop offset="1" stop-color="#FF6A42"/>
</linearGradient>
</defs>
</svg>
