<svg width="24" height="24" viewBox="0 0 24 24" fill="none" xmlns="http://www.w3.org/2000/svg">
<path d="M22.4226 11C22.7799 11.6188 22.7799 12.3812 22.4226 13L18.0773 20.5263C17.7201 21.1451 17.0598 21.5263 16.3453 21.5263L7.6547 21.5263C6.94017 21.5263 6.27992 21.1451 5.92265 20.5263L1.57735 13C1.22009 12.3812 1.22009 11.6188 1.57735 11L5.92265 3.47372C6.27992 2.85492 6.94017 2.47372 7.6547 2.47372L16.3453 2.47372C17.0598 2.47372 17.7201 2.85492 18.0774 3.47372L22.4226 11Z" stroke="#1C1E20" stroke-width="1.5"/>
<path d="M12 15C13.6569 15 15 13.6569 15 12C15 10.3431 13.6569 9 12 9C10.3431 9 9 10.3431 9 12C9 13.6569 10.3431 15 12 15Z" stroke="#1C1E20" stroke-width="1.5"/>
</svg>
