<svg width="20" height="21" viewBox="0 0 20 21" fill="none" xmlns="http://www.w3.org/2000/svg">
<path d="M10 7.5L4.99999 7.50003C3.89542 7.50003 3 8.39546 3 9.50003V17.5C3 18.0523 3.44772 18.5 4 18.5L7.78333 18.5V14.8846C7.78333 14.3323 8.23105 13.8846 8.78333 13.8846H11.2167C11.769 13.8846 12.2167 14.3323 12.2167 14.8846V18.5L16 18.5C16.5523 18.5 17 18.0523 17 17.5V9.50003C17 8.39546 16.1046 7.50003 15 7.50003L10 7.5Z" stroke="#1C1E20" stroke-width="1.5" stroke-linejoin="round"/>
<path fill-rule="evenodd" clip-rule="evenodd" d="M16.8 3.45001H3.2L2 8.25001V8.25002C2 9.79642 3.2536 11.05 4.8 11.05C5.97843 11.05 6.98682 10.322 7.4 9.29125C7.81318 10.322 8.82158 11.05 10 11.05C11.1784 11.05 12.1868 10.322 12.6 9.29124C13.0132 10.322 14.0216 11.05 15.2 11.05C16.7464 11.05 18 9.79641 18 8.25001L16.8 3.45001Z" fill="white"/>
<path d="M3.2 3.45001V2.70001C2.85585 2.70001 2.55586 2.93424 2.47239 3.26811L3.2 3.45001ZM16.8 3.45001L17.5276 3.26811C17.4441 2.93424 17.1442 2.70001 16.8 2.70001V3.45001ZM2 8.25001L1.27239 8.06811C1.25752 8.1276 1.25 8.18869 1.25 8.25001H2ZM7.4 9.29125L8.09616 9.0122C7.98213 8.72772 7.70648 8.54125 7.4 8.54125C7.09352 8.54125 6.81787 8.72773 6.70385 9.01221L7.4 9.29125ZM12.6 9.29124L13.2962 9.0122C13.1821 8.72772 12.9065 8.54124 12.6 8.54124C12.2935 8.54124 12.0179 8.72772 11.9038 9.0122L12.6 9.29124ZM18 8.25001H18.75C18.75 8.18869 18.7425 8.1276 18.7276 8.06811L18 8.25001ZM3.2 4.20001H16.8V2.70001H3.2V4.20001ZM2.72761 8.43191L3.92761 3.63191L2.47239 3.26811L1.27239 8.06811L2.72761 8.43191ZM1.25 8.25001V8.25002H2.75V8.25001H1.25ZM1.25 8.25002C1.25 10.2106 2.83939 11.8 4.8 11.8V10.3C3.66782 10.3 2.75 9.38221 2.75 8.25002H1.25ZM4.8 11.8C6.29526 11.8 7.57285 10.8758 8.09616 9.5703L6.70385 9.01221C6.4008 9.76824 5.6616 10.3 4.8 10.3V11.8ZM6.70385 9.5703C7.22716 10.8758 8.50474 11.8 10 11.8V10.3C9.13841 10.3 8.39921 9.76824 8.09616 9.0122L6.70385 9.5703ZM10 11.8C11.4953 11.8 12.7728 10.8758 13.2962 9.57029L11.9038 9.0122C11.6008 9.76823 10.8616 10.3 10 10.3V11.8ZM11.9038 9.57029C12.4272 10.8758 13.7047 11.8 15.2 11.8V10.3C14.3384 10.3 13.5992 9.76823 13.2962 9.0122L11.9038 9.57029ZM15.2 11.8C17.1606 11.8 18.75 10.2106 18.75 8.25001H17.25C17.25 9.3822 16.3322 10.3 15.2 10.3V11.8ZM16.0724 3.63191L17.2724 8.43191L18.7276 8.06811L17.5276 3.26811L16.0724 3.63191Z" fill="#1C1E20"/>
</svg>
